<mxfile host="app.diagrams.net" agent="Mozilla/5.0 (Windows NT 10.0; Win64; x64) AppleWebKit/537.36 (KHTML, like Gecko) Chrome/128.0.0.0 Safari/537.36 OPR/114.0.0.0 (Edition std-1)" version="24.9.2">
  <diagram name="Página-1" id="cGcbAnJKFQXFDXbDX_ZU">
    <mxGraphModel dx="1009" dy="573" grid="1" gridSize="10" guides="1" tooltips="1" connect="1" arrows="1" fold="1" page="1" pageScale="1" pageWidth="827" pageHeight="1169" math="0" shadow="0">
      <root>
        <mxCell id="0" />
        <mxCell id="1" parent="0" />
        <mxCell id="P565HIoxY4dch2L1MGM5-1" value="" style="whiteSpace=wrap;html=1;aspect=fixed;fillColor=#1ba1e2;fontColor=#ffffff;strokeColor=#006EAF;" vertex="1" parent="1">
          <mxGeometry x="40" y="20" width="530" height="530" as="geometry" />
        </mxCell>
        <mxCell id="P565HIoxY4dch2L1MGM5-2" value="" style="endArrow=none;html=1;rounded=0;exitX=-0.001;exitY=0.061;exitDx=0;exitDy=0;exitPerimeter=0;entryX=1.002;entryY=0.064;entryDx=0;entryDy=0;entryPerimeter=0;" edge="1" parent="1" source="P565HIoxY4dch2L1MGM5-1" target="P565HIoxY4dch2L1MGM5-1">
          <mxGeometry width="50" height="50" relative="1" as="geometry">
            <mxPoint x="390" y="300" as="sourcePoint" />
            <mxPoint x="440" y="250" as="targetPoint" />
          </mxGeometry>
        </mxCell>
        <mxCell id="P565HIoxY4dch2L1MGM5-3" value="" style="ellipse;whiteSpace=wrap;html=1;aspect=fixed;fillColor=none;" vertex="1" parent="1">
          <mxGeometry x="540" y="30" width="20" height="20" as="geometry" />
        </mxCell>
        <mxCell id="P565HIoxY4dch2L1MGM5-4" value="" style="ellipse;whiteSpace=wrap;html=1;aspect=fixed;fillColor=none;" vertex="1" parent="1">
          <mxGeometry x="520" y="30" width="20" height="20" as="geometry" />
        </mxCell>
        <mxCell id="P565HIoxY4dch2L1MGM5-5" value="" style="ellipse;whiteSpace=wrap;html=1;aspect=fixed;fillColor=none;" vertex="1" parent="1">
          <mxGeometry x="500" y="30" width="20" height="20" as="geometry" />
        </mxCell>
        <mxCell id="P565HIoxY4dch2L1MGM5-6" value="&lt;font color=&quot;#ffffff&quot;&gt;Lista de pacientes&lt;/font&gt;" style="text;html=1;align=center;verticalAlign=middle;whiteSpace=wrap;rounded=0;" vertex="1" parent="1">
          <mxGeometry x="30" y="20" width="150" height="30" as="geometry" />
        </mxCell>
        <mxCell id="P565HIoxY4dch2L1MGM5-7" value="&lt;font color=&quot;#ffffff&quot; style=&quot;font-size: 25px;&quot;&gt;Pacientes&lt;/font&gt;&lt;hr&gt;" style="text;html=1;align=center;verticalAlign=middle;whiteSpace=wrap;rounded=0;" vertex="1" parent="1">
          <mxGeometry x="100" y="70" width="60" height="30" as="geometry" />
        </mxCell>
        <mxCell id="P565HIoxY4dch2L1MGM5-8" value="&lt;font color=&quot;#ffffff&quot; style=&quot;font-size: 15px;&quot;&gt;Nombre - RUT&lt;/font&gt;" style="text;html=1;align=center;verticalAlign=middle;whiteSpace=wrap;rounded=0;" vertex="1" parent="1">
          <mxGeometry x="70" y="130" width="110" height="30" as="geometry" />
        </mxCell>
        <mxCell id="P565HIoxY4dch2L1MGM5-9" value="" style="rounded=0;whiteSpace=wrap;html=1;strokeColor=none;fillColor=#000000;" vertex="1" parent="1">
          <mxGeometry x="70" y="170" width="470" height="140" as="geometry" />
        </mxCell>
        <mxCell id="P565HIoxY4dch2L1MGM5-10" value="&lt;font color=&quot;#ffffff&quot;&gt;Rodolfo Arriagada - 16570090-1&lt;/font&gt;&lt;div style=&quot;text-align: left;&quot;&gt;&lt;font color=&quot;#ffffff&quot;&gt;&lt;br&gt;&lt;/font&gt;&lt;/div&gt;&lt;div style=&quot;text-align: left;&quot;&gt;&lt;font color=&quot;#ffffff&quot;&gt;Andrés Aburto - 19987654-3&lt;/font&gt;&lt;/div&gt;&lt;div style=&quot;text-align: left;&quot;&gt;&lt;font color=&quot;#ffffff&quot;&gt;&lt;br&gt;&lt;/font&gt;&lt;/div&gt;&lt;div style=&quot;text-align: left;&quot;&gt;&lt;font color=&quot;#ffffff&quot;&gt;Juan Pérez - 16789234-5&lt;/font&gt;&lt;/div&gt;&lt;div style=&quot;text-align: left;&quot;&gt;&lt;font color=&quot;#ffffff&quot;&gt;&lt;br&gt;&lt;/font&gt;&lt;/div&gt;&lt;div style=&quot;text-align: left;&quot;&gt;&lt;font color=&quot;#ffffff&quot;&gt;Sergio Pérez - 21135330-4&lt;/font&gt;&lt;/div&gt;" style="text;html=1;align=center;verticalAlign=middle;whiteSpace=wrap;rounded=0;" vertex="1" parent="1">
          <mxGeometry x="80" y="180" width="180" height="110" as="geometry" />
        </mxCell>
        <mxCell id="P565HIoxY4dch2L1MGM5-11" value="&lt;font color=&quot;#ffffff&quot;&gt;Volver&lt;/font&gt;" style="rounded=1;whiteSpace=wrap;html=1;strokeColor=none;fillColor=#99CCFF;" vertex="1" parent="1">
          <mxGeometry x="70" y="330" width="70" height="30" as="geometry" />
        </mxCell>
      </root>
    </mxGraphModel>
  </diagram>
</mxfile>
